# Blender v3.0.0 OBJ File: '3d models for proj.blend'
# www.blender.org
mtllib walkway.mtl
o grate.001_Plane.001
v 7.886383 2.797170 -3.893674
v 7.886383 0.353598 -3.893674
v -7.763596 2.797170 -3.893664
v -7.763596 0.353598 -3.893664
vt 0.000000 0.000000
vt 1.000000 0.000000
vt 1.000000 1.000000
vt 0.000000 1.000000
vn -0.0000 0.0000 -1.0000
usemtl Material.003
s off
f 1/1/1 2/2/1 4/3/1 3/4/1
o path_Cube.012
v 7.886413 -0.481940 4.047830
v 7.886413 0.481940 4.047830
v -7.886413 -0.481940 4.047830
v -7.886413 0.481940 4.047830
v 7.886413 -0.481940 -4.047830
v 7.886413 0.481940 -4.047830
v -7.886413 -0.481940 -4.047830
v -7.886413 0.481940 -4.047830
vt 0.375000 0.000000
vt 0.625000 0.000000
vt 0.625000 0.250000
vt 0.375000 0.250000
vt 0.625000 0.500000
vt 0.375000 0.500000
vt 0.625000 0.750000
vt 0.375000 0.750000
vt 0.625000 1.000000
vt 0.375000 1.000000
vt 0.125000 0.500000
vt 0.125000 0.750000
vt 0.875000 0.500000
vt 0.875000 0.750000
vn 0.0000 0.0000 1.0000
vn -1.0000 0.0000 0.0000
vn 0.0000 0.0000 -1.0000
vn 1.0000 0.0000 0.0000
vn 0.0000 -1.0000 0.0000
vn 0.0000 1.0000 0.0000
usemtl None
s off
f 5/5/2 6/6/2 8/7/2 7/8/2
f 7/8/3 8/7/3 12/9/3 11/10/3
f 11/10/4 12/9/4 10/11/4 9/12/4
f 9/12/5 10/11/5 6/13/5 5/14/5
f 7/15/6 11/10/6 9/12/6 5/16/6
f 12/9/7 8/17/7 6/18/7 10/11/7
